<mxfile host="app.diagrams.net" agent="Mozilla/5.0 (Windows NT 10.0; Win64; x64) AppleWebKit/537.36 (KHTML, like Gecko) Chrome/129.0.0.0 Safari/537.36 Edg/129.0.0.0" version="24.7.7">
  <diagram name="Page-1" id="HDFyNM7M_0Mfe1EKTIEl">
    <mxGraphModel dx="2527" dy="756" grid="1" gridSize="10" guides="1" tooltips="1" connect="1" arrows="1" fold="1" page="1" pageScale="1" pageWidth="850" pageHeight="1100" math="0" shadow="0">
      <root>
        <mxCell id="0" />
        <mxCell id="1" parent="0" />
        <mxCell id="dcNbduUrWf-Qaazi3nK--1" value="Actor" style="shape=umlActor;verticalLabelPosition=bottom;verticalAlign=top;html=1;outlineConnect=0;" parent="1" vertex="1">
          <mxGeometry x="-75" y="650" width="30" height="60" as="geometry" />
        </mxCell>
        <mxCell id="dcNbduUrWf-Qaazi3nK--2" value="Gateway" style="rhombus;whiteSpace=wrap;html=1;" parent="1" vertex="1">
          <mxGeometry x="-100" y="520" width="80" height="80" as="geometry" />
        </mxCell>
        <mxCell id="dcNbduUrWf-Qaazi3nK--3" value="" style="endArrow=classic;html=1;rounded=0;" parent="1" edge="1">
          <mxGeometry width="50" height="50" relative="1" as="geometry">
            <mxPoint x="-60.5" y="640" as="sourcePoint" />
            <mxPoint x="-60" y="600" as="targetPoint" />
            <Array as="points">
              <mxPoint x="-60" y="650" />
            </Array>
          </mxGeometry>
        </mxCell>
        <mxCell id="dcNbduUrWf-Qaazi3nK--5" value="" style="whiteSpace=wrap;html=1;aspect=fixed;" parent="1" vertex="1">
          <mxGeometry x="90" y="220" width="760" height="760" as="geometry" />
        </mxCell>
        <mxCell id="dcNbduUrWf-Qaazi3nK--6" value="User&lt;div&gt;MS&lt;/div&gt;" style="rounded=1;whiteSpace=wrap;html=1;" parent="1" vertex="1">
          <mxGeometry x="560" y="230" width="120" height="60" as="geometry" />
        </mxCell>
        <mxCell id="dcNbduUrWf-Qaazi3nK--7" value="User&lt;div&gt;Details&lt;/div&gt;" style="shape=cylinder3;whiteSpace=wrap;html=1;boundedLbl=1;backgroundOutline=1;size=15;" parent="1" vertex="1">
          <mxGeometry x="750" y="220" width="60" height="80" as="geometry" />
        </mxCell>
        <mxCell id="dcNbduUrWf-Qaazi3nK--9" value="" style="endArrow=classic;startArrow=classic;html=1;rounded=0;entryX=0;entryY=0.5;entryDx=0;entryDy=0;entryPerimeter=0;exitX=1;exitY=0.5;exitDx=0;exitDy=0;" parent="1" source="dcNbduUrWf-Qaazi3nK--6" target="dcNbduUrWf-Qaazi3nK--7" edge="1">
          <mxGeometry width="50" height="50" relative="1" as="geometry">
            <mxPoint x="660" y="300" as="sourcePoint" />
            <mxPoint x="710" y="250" as="targetPoint" />
          </mxGeometry>
        </mxCell>
        <mxCell id="dcNbduUrWf-Qaazi3nK--10" value="Registry" style="rounded=0;whiteSpace=wrap;html=1;" parent="1" vertex="1">
          <mxGeometry x="240" y="490" width="220" height="140" as="geometry" />
        </mxCell>
        <mxCell id="dcNbduUrWf-Qaazi3nK--11" value="" style="endArrow=classic;startArrow=classic;html=1;rounded=0;entryX=0;entryY=0.5;entryDx=0;entryDy=0;exitX=1;exitY=0.5;exitDx=0;exitDy=0;" parent="1" target="dcNbduUrWf-Qaazi3nK--10" edge="1">
          <mxGeometry width="50" height="50" relative="1" as="geometry">
            <mxPoint x="180" y="560" as="sourcePoint" />
            <mxPoint x="150" y="340" as="targetPoint" />
          </mxGeometry>
        </mxCell>
        <mxCell id="dcNbduUrWf-Qaazi3nK--13" value="Flights&lt;div&gt;MS&lt;/div&gt;" style="rounded=1;whiteSpace=wrap;html=1;" parent="1" vertex="1">
          <mxGeometry x="560" y="320" width="120" height="60" as="geometry" />
        </mxCell>
        <mxCell id="dcNbduUrWf-Qaazi3nK--14" value="&lt;div&gt;Bookings&lt;/div&gt;&lt;div&gt;MS&lt;/div&gt;" style="rounded=1;whiteSpace=wrap;html=1;" parent="1" vertex="1">
          <mxGeometry x="560" y="420" width="120" height="60" as="geometry" />
        </mxCell>
        <mxCell id="dcNbduUrWf-Qaazi3nK--15" value="&lt;div&gt;Admin&amp;nbsp;&lt;/div&gt;&lt;div&gt;MS&lt;br&gt;&lt;/div&gt;" style="rounded=1;whiteSpace=wrap;html=1;" parent="1" vertex="1">
          <mxGeometry x="560" y="510" width="120" height="60" as="geometry" />
        </mxCell>
        <mxCell id="dcNbduUrWf-Qaazi3nK--17" value="Flights&lt;div&gt;DB&lt;/div&gt;" style="shape=cylinder3;whiteSpace=wrap;html=1;boundedLbl=1;backgroundOutline=1;size=15;" parent="1" vertex="1">
          <mxGeometry x="750" y="310" width="60" height="80" as="geometry" />
        </mxCell>
        <mxCell id="dcNbduUrWf-Qaazi3nK--18" value="Bookings DB" style="shape=cylinder3;whiteSpace=wrap;html=1;boundedLbl=1;backgroundOutline=1;size=15;" parent="1" vertex="1">
          <mxGeometry x="750" y="410" width="60" height="80" as="geometry" />
        </mxCell>
        <mxCell id="dcNbduUrWf-Qaazi3nK--19" value="Admin&lt;div&gt;DB&lt;/div&gt;" style="shape=cylinder3;whiteSpace=wrap;html=1;boundedLbl=1;backgroundOutline=1;size=15;" parent="1" vertex="1">
          <mxGeometry x="750" y="500" width="60" height="80" as="geometry" />
        </mxCell>
        <mxCell id="dcNbduUrWf-Qaazi3nK--20" value="Owner&lt;div&gt;DB&lt;/div&gt;" style="shape=cylinder3;whiteSpace=wrap;html=1;boundedLbl=1;backgroundOutline=1;size=15;" parent="1" vertex="1">
          <mxGeometry x="750" y="590" width="60" height="80" as="geometry" />
        </mxCell>
        <mxCell id="dcNbduUrWf-Qaazi3nK--21" value="Offers&lt;div&gt;DB&lt;/div&gt;" style="shape=cylinder3;whiteSpace=wrap;html=1;boundedLbl=1;backgroundOutline=1;size=15;" parent="1" vertex="1">
          <mxGeometry x="750" y="680" width="60" height="80" as="geometry" />
        </mxCell>
        <mxCell id="dcNbduUrWf-Qaazi3nK--22" value="Feedback&lt;div&gt;DB&lt;/div&gt;" style="shape=cylinder3;whiteSpace=wrap;html=1;boundedLbl=1;backgroundOutline=1;size=15;" parent="1" vertex="1">
          <mxGeometry x="750" y="780" width="60" height="80" as="geometry" />
        </mxCell>
        <mxCell id="dcNbduUrWf-Qaazi3nK--23" value="&lt;div&gt;Owner&lt;/div&gt;&lt;div&gt;Services&lt;/div&gt;" style="rounded=1;whiteSpace=wrap;html=1;" parent="1" vertex="1">
          <mxGeometry x="560" y="600" width="120" height="60" as="geometry" />
        </mxCell>
        <mxCell id="dcNbduUrWf-Qaazi3nK--24" value="&lt;div&gt;Offers&lt;/div&gt;&lt;div&gt;MS&lt;/div&gt;" style="rounded=1;whiteSpace=wrap;html=1;" parent="1" vertex="1">
          <mxGeometry x="560" y="690" width="120" height="60" as="geometry" />
        </mxCell>
        <mxCell id="dcNbduUrWf-Qaazi3nK--25" value="Feedback&lt;div&gt;MS&lt;/div&gt;" style="rounded=1;whiteSpace=wrap;html=1;" parent="1" vertex="1">
          <mxGeometry x="560" y="790" width="120" height="60" as="geometry" />
        </mxCell>
        <mxCell id="dcNbduUrWf-Qaazi3nK--27" value="Payments&lt;div&gt;DB&lt;/div&gt;" style="shape=cylinder3;whiteSpace=wrap;html=1;boundedLbl=1;backgroundOutline=1;size=15;" parent="1" vertex="1">
          <mxGeometry x="750" y="870" width="60" height="80" as="geometry" />
        </mxCell>
        <mxCell id="dcNbduUrWf-Qaazi3nK--28" value="Payment&lt;div&gt;MS&lt;/div&gt;" style="rounded=1;whiteSpace=wrap;html=1;" parent="1" vertex="1">
          <mxGeometry x="560" y="880" width="120" height="60" as="geometry" />
        </mxCell>
        <mxCell id="dcNbduUrWf-Qaazi3nK--30" value="" style="endArrow=classic;startArrow=classic;html=1;rounded=0;entryX=0;entryY=0.5;entryDx=0;entryDy=0;entryPerimeter=0;exitX=1;exitY=0.5;exitDx=0;exitDy=0;" parent="1" edge="1">
          <mxGeometry width="50" height="50" relative="1" as="geometry">
            <mxPoint x="680" y="349.5" as="sourcePoint" />
            <mxPoint x="750" y="349.5" as="targetPoint" />
          </mxGeometry>
        </mxCell>
        <mxCell id="dcNbduUrWf-Qaazi3nK--31" value="" style="endArrow=classic;startArrow=classic;html=1;rounded=0;entryX=0;entryY=0.5;entryDx=0;entryDy=0;entryPerimeter=0;exitX=1;exitY=0.5;exitDx=0;exitDy=0;" parent="1" edge="1">
          <mxGeometry width="50" height="50" relative="1" as="geometry">
            <mxPoint x="680" y="449.5" as="sourcePoint" />
            <mxPoint x="750" y="449.5" as="targetPoint" />
          </mxGeometry>
        </mxCell>
        <mxCell id="dcNbduUrWf-Qaazi3nK--32" value="" style="endArrow=classic;startArrow=classic;html=1;rounded=0;entryX=0;entryY=0.5;entryDx=0;entryDy=0;entryPerimeter=0;exitX=1;exitY=0.5;exitDx=0;exitDy=0;" parent="1" edge="1">
          <mxGeometry width="50" height="50" relative="1" as="geometry">
            <mxPoint x="680" y="539.5" as="sourcePoint" />
            <mxPoint x="750" y="539.5" as="targetPoint" />
          </mxGeometry>
        </mxCell>
        <mxCell id="dcNbduUrWf-Qaazi3nK--33" value="" style="endArrow=classic;startArrow=classic;html=1;rounded=0;entryX=0;entryY=0.5;entryDx=0;entryDy=0;entryPerimeter=0;exitX=1;exitY=0.5;exitDx=0;exitDy=0;" parent="1" edge="1">
          <mxGeometry width="50" height="50" relative="1" as="geometry">
            <mxPoint x="680" y="630" as="sourcePoint" />
            <mxPoint x="750" y="630" as="targetPoint" />
          </mxGeometry>
        </mxCell>
        <mxCell id="dcNbduUrWf-Qaazi3nK--34" value="" style="endArrow=classic;startArrow=classic;html=1;rounded=0;entryX=0;entryY=0.5;entryDx=0;entryDy=0;entryPerimeter=0;exitX=1;exitY=0.5;exitDx=0;exitDy=0;" parent="1" edge="1">
          <mxGeometry width="50" height="50" relative="1" as="geometry">
            <mxPoint x="680" y="719.5" as="sourcePoint" />
            <mxPoint x="750" y="719.5" as="targetPoint" />
          </mxGeometry>
        </mxCell>
        <mxCell id="dcNbduUrWf-Qaazi3nK--35" value="" style="endArrow=classic;startArrow=classic;html=1;rounded=0;entryX=0;entryY=0.5;entryDx=0;entryDy=0;entryPerimeter=0;exitX=1;exitY=0.5;exitDx=0;exitDy=0;" parent="1" edge="1">
          <mxGeometry width="50" height="50" relative="1" as="geometry">
            <mxPoint x="680" y="819.5" as="sourcePoint" />
            <mxPoint x="750" y="819.5" as="targetPoint" />
          </mxGeometry>
        </mxCell>
        <mxCell id="dcNbduUrWf-Qaazi3nK--36" value="" style="endArrow=classic;startArrow=classic;html=1;rounded=0;entryX=0;entryY=0.5;entryDx=0;entryDy=0;entryPerimeter=0;exitX=1;exitY=0.5;exitDx=0;exitDy=0;" parent="1" edge="1">
          <mxGeometry width="50" height="50" relative="1" as="geometry">
            <mxPoint x="680" y="909.5" as="sourcePoint" />
            <mxPoint x="750" y="909.5" as="targetPoint" />
          </mxGeometry>
        </mxCell>
        <mxCell id="dcNbduUrWf-Qaazi3nK--37" value="" style="endArrow=classic;html=1;rounded=0;entryX=0.5;entryY=0;entryDx=0;entryDy=0;exitX=0;exitY=0.5;exitDx=0;exitDy=0;" parent="1" source="dcNbduUrWf-Qaazi3nK--6" target="dcNbduUrWf-Qaazi3nK--10" edge="1">
          <mxGeometry width="50" height="50" relative="1" as="geometry">
            <mxPoint x="455" y="310" as="sourcePoint" />
            <mxPoint x="505" y="260" as="targetPoint" />
          </mxGeometry>
        </mxCell>
        <mxCell id="dcNbduUrWf-Qaazi3nK--38" value="" style="endArrow=classic;html=1;rounded=0;entryX=0.5;entryY=0;entryDx=0;entryDy=0;exitX=0;exitY=0.5;exitDx=0;exitDy=0;" parent="1" source="dcNbduUrWf-Qaazi3nK--13" target="dcNbduUrWf-Qaazi3nK--10" edge="1">
          <mxGeometry width="50" height="50" relative="1" as="geometry">
            <mxPoint x="570" y="270" as="sourcePoint" />
            <mxPoint x="360" y="500" as="targetPoint" />
          </mxGeometry>
        </mxCell>
        <mxCell id="dcNbduUrWf-Qaazi3nK--39" value="" style="endArrow=classic;html=1;rounded=0;entryX=0.5;entryY=0;entryDx=0;entryDy=0;exitX=0;exitY=0.5;exitDx=0;exitDy=0;" parent="1" target="dcNbduUrWf-Qaazi3nK--10" edge="1">
          <mxGeometry width="50" height="50" relative="1" as="geometry">
            <mxPoint x="560" y="450" as="sourcePoint" />
            <mxPoint x="350" y="590" as="targetPoint" />
          </mxGeometry>
        </mxCell>
        <mxCell id="dcNbduUrWf-Qaazi3nK--40" value="" style="endArrow=classic;html=1;rounded=0;entryX=1;entryY=0.5;entryDx=0;entryDy=0;exitX=0;exitY=0.5;exitDx=0;exitDy=0;" parent="1" target="dcNbduUrWf-Qaazi3nK--10" edge="1">
          <mxGeometry width="50" height="50" relative="1" as="geometry">
            <mxPoint x="560" y="540" as="sourcePoint" />
            <mxPoint x="350" y="580" as="targetPoint" />
          </mxGeometry>
        </mxCell>
        <mxCell id="dcNbduUrWf-Qaazi3nK--41" value="" style="endArrow=classic;html=1;rounded=0;entryX=1;entryY=0.5;entryDx=0;entryDy=0;exitX=0;exitY=0.5;exitDx=0;exitDy=0;" parent="1" target="dcNbduUrWf-Qaazi3nK--10" edge="1">
          <mxGeometry width="50" height="50" relative="1" as="geometry">
            <mxPoint x="560" y="630" as="sourcePoint" />
            <mxPoint x="460" y="650" as="targetPoint" />
          </mxGeometry>
        </mxCell>
        <mxCell id="dcNbduUrWf-Qaazi3nK--42" value="" style="endArrow=classic;html=1;rounded=0;entryX=0.5;entryY=1;entryDx=0;entryDy=0;exitX=0;exitY=0.5;exitDx=0;exitDy=0;" parent="1" target="dcNbduUrWf-Qaazi3nK--10" edge="1">
          <mxGeometry width="50" height="50" relative="1" as="geometry">
            <mxPoint x="560" y="720" as="sourcePoint" />
            <mxPoint x="460" y="650" as="targetPoint" />
          </mxGeometry>
        </mxCell>
        <mxCell id="dcNbduUrWf-Qaazi3nK--43" value="" style="endArrow=classic;html=1;rounded=0;entryX=0.5;entryY=1;entryDx=0;entryDy=0;exitX=0;exitY=0.5;exitDx=0;exitDy=0;" parent="1" target="dcNbduUrWf-Qaazi3nK--10" edge="1">
          <mxGeometry width="50" height="50" relative="1" as="geometry">
            <mxPoint x="560" y="820" as="sourcePoint" />
            <mxPoint x="350" y="730" as="targetPoint" />
          </mxGeometry>
        </mxCell>
        <mxCell id="dcNbduUrWf-Qaazi3nK--44" value="" style="endArrow=classic;html=1;rounded=0;entryX=0.5;entryY=1;entryDx=0;entryDy=0;exitX=0;exitY=0.5;exitDx=0;exitDy=0;" parent="1" target="dcNbduUrWf-Qaazi3nK--10" edge="1">
          <mxGeometry width="50" height="50" relative="1" as="geometry">
            <mxPoint x="560" y="915" as="sourcePoint" />
            <mxPoint x="350" y="725" as="targetPoint" />
          </mxGeometry>
        </mxCell>
        <mxCell id="dcNbduUrWf-Qaazi3nK--45" value="Config Server" style="ellipse;whiteSpace=wrap;html=1;" parent="1" vertex="1">
          <mxGeometry x="420" y="80" width="120" height="80" as="geometry" />
        </mxCell>
        <mxCell id="dcNbduUrWf-Qaazi3nK--46" value="" style="endArrow=classic;html=1;rounded=0;exitX=0.5;exitY=1;exitDx=0;exitDy=0;" parent="1" source="dcNbduUrWf-Qaazi3nK--45" edge="1">
          <mxGeometry width="50" height="50" relative="1" as="geometry">
            <mxPoint x="430" y="330" as="sourcePoint" />
            <mxPoint x="480" y="350" as="targetPoint" />
          </mxGeometry>
        </mxCell>
        <mxCell id="dcNbduUrWf-Qaazi3nK--48" value="" style="endArrow=classic;startArrow=classic;html=1;rounded=0;entryX=0;entryY=0.5;entryDx=0;entryDy=0;exitX=1;exitY=0.5;exitDx=0;exitDy=0;" parent="1" source="dcNbduUrWf-Qaazi3nK--2" edge="1">
          <mxGeometry width="50" height="50" relative="1" as="geometry">
            <mxPoint x="-20" y="560" as="sourcePoint" />
            <mxPoint x="120" y="560" as="targetPoint" />
          </mxGeometry>
        </mxCell>
        <mxCell id="P5t8T5EIzqFrJdfUFHJj-2" value="" style="endArrow=classic;html=1;rounded=0;entryX=0.25;entryY=0;entryDx=0;entryDy=0;exitX=0.329;exitY=0.145;exitDx=0;exitDy=0;exitPerimeter=0;" edge="1" parent="1" source="dcNbduUrWf-Qaazi3nK--5" target="dcNbduUrWf-Qaazi3nK--10">
          <mxGeometry width="50" height="50" relative="1" as="geometry">
            <mxPoint x="370" y="410" as="sourcePoint" />
            <mxPoint x="420" y="360" as="targetPoint" />
          </mxGeometry>
        </mxCell>
        <mxCell id="P5t8T5EIzqFrJdfUFHJj-3" value="" style="endArrow=classic;html=1;rounded=0;exitX=0.329;exitY=0.145;exitDx=0;exitDy=0;exitPerimeter=0;" edge="1" parent="1" target="dcNbduUrWf-Qaazi3nK--2">
          <mxGeometry width="50" height="50" relative="1" as="geometry">
            <mxPoint x="235" y="320" as="sourcePoint" />
            <mxPoint x="190" y="480" as="targetPoint" />
          </mxGeometry>
        </mxCell>
        <mxCell id="P5t8T5EIzqFrJdfUFHJj-4" value="Auth&lt;div&gt;DB&lt;/div&gt;" style="shape=cylinder3;whiteSpace=wrap;html=1;boundedLbl=1;backgroundOutline=1;size=15;" vertex="1" parent="1">
          <mxGeometry x="240" y="80" width="60" height="80" as="geometry" />
        </mxCell>
        <mxCell id="P5t8T5EIzqFrJdfUFHJj-5" value="" style="endArrow=classic;html=1;rounded=0;" edge="1" parent="1">
          <mxGeometry width="50" height="50" relative="1" as="geometry">
            <mxPoint x="269.28999999999996" y="160" as="sourcePoint" />
            <mxPoint x="269.28999999999996" y="280" as="targetPoint" />
          </mxGeometry>
        </mxCell>
        <mxCell id="P5t8T5EIzqFrJdfUFHJj-6" value="Login&lt;div&gt;Auth&lt;/div&gt;" style="ellipse;whiteSpace=wrap;html=1;aspect=fixed;" vertex="1" parent="1">
          <mxGeometry x="250" y="290" width="80" height="80" as="geometry" />
        </mxCell>
      </root>
    </mxGraphModel>
  </diagram>
</mxfile>
